<svg xmlns="http://www.w3.org/2000/svg" width="553" height="651" fill="none"><path fill="#2C3E50" d="M219.855 612.932c0 20.577-16.626 37.202-37.203 37.202s-37.202-16.693-37.202-37.202 16.625-37.202 37.202-37.202 37.203 16.625 37.203 37.202"/><path fill="#ECF0F1" d="M202.548 612.932c0 11.038-8.926 19.896-19.896 19.896s-19.895-8.926-19.895-19.896 8.925-19.896 19.895-19.896 19.896 8.926 19.896 19.896"/><path fill="#95A5A6" d="M171.75 544.523v76.858h19.692l36.316-76.858z"/><path fill="#2C3E50" d="M462.147 612.932c0 20.577-16.625 37.202-37.203 37.202-20.577 0-37.202-16.693-37.202-37.202s16.625-37.202 37.202-37.202c20.578 0 37.203 16.625 37.203 37.202"/><path fill="#ECF0F1" d="M444.908 612.932c0 11.038-8.926 19.896-19.895 19.896-10.97 0-19.896-8.926-19.896-19.896s8.926-19.896 19.896-19.896c10.969 0 19.895 8.926 19.895 19.896"/><path fill="#95A5A6" d="M414.043 544.523v76.858h19.691l36.317-76.858z"/><path fill="#BDC3C7" d="M479.862 554.471H148.925c-12.333 0-23.575-5.655-30.866-15.535-7.29-9.88-9.471-22.28-5.928-34.068l34.954-115.695c4.974-16.353 19.76-27.323 36.794-27.323h100.773c10.766 0 21.054 4.565 28.345 12.469 7.29 7.904 10.901 18.601 10.016 29.299l-7.563 88.781c-.477 5.247 1.294 10.289 4.837 14.173 3.543 3.883 8.449 5.996 13.696 5.996h53.759a9.915 9.915 0 0 1 9.948 9.947 9.916 9.916 0 0 1-9.948 9.948h-53.759c-10.766 0-21.054-4.565-28.345-12.469s-10.902-18.601-10.016-29.298l7.563-88.782c.477-5.246-1.295-10.288-4.838-14.172s-8.448-5.996-13.695-5.996H183.879c-8.245 0-15.399 5.315-17.784 13.219L131.141 510.66c-1.703 5.723-.681 11.719 2.862 16.489 3.543 4.769 8.994 7.495 14.922 7.495h330.937a9.916 9.916 0 0 1 9.948 9.948 9.915 9.915 0 0 1-9.948 9.947z"/><path fill="#BDC3C7" d="M470.051 367.029H164.528c-22.008 0-41.154-15.604-45.651-37.135L65.594 73.634l470.072 103.227-19.419 149.49c-2.998 23.167-22.894 40.609-46.264 40.609zM91.35 99.662l47.014 226.212c2.589 12.333 13.559 21.327 26.164 21.327h305.523c13.422 0 24.801-10.016 26.505-23.303l17.102-131.434z"/><path fill="#BDC3C7" d="M210.656 367.029c-4.837 0-9.062-3.475-9.811-8.381l-38.974-249.992a9.99 9.99 0 0 1 8.312-11.378c5.383-.818 10.493 2.861 11.379 8.312l38.974 249.992a9.99 9.99 0 0 1-8.313 11.379c-.545.068-1.022.136-1.567.136zM271.911 367.029c-5.179 0-9.539-4.02-9.88-9.267L246.36 127.666c-.341-5.451 3.747-10.22 9.266-10.561 5.383-.34 10.221 3.748 10.561 9.267l15.672 230.096c.408 5.45-3.748 10.22-9.267 10.561zM335.89 360.351a9.915 9.915 0 0 1-9.947-9.948v-207.27a9.915 9.915 0 0 1 9.947-9.948 9.916 9.916 0 0 1 9.948 9.948v207.27a9.916 9.916 0 0 1-9.948 9.948M400.075 367.029h-.477c-5.519-.273-9.744-4.906-9.471-10.357l8.994-193.37c.272-5.315 4.633-9.471 9.948-9.471h.477c5.519.272 9.743 4.905 9.471 10.356l-8.994 193.371c-.273 5.314-4.634 9.471-9.948 9.471M456.287 360.351h-1.022c-5.451-.545-9.471-5.451-8.926-10.901l17.784-176.882c.545-5.451 5.382-9.403 10.901-8.926a9.955 9.955 0 0 1 8.926 10.902l-17.783 176.881c-.545 5.111-4.838 8.926-9.88 8.926"/><path fill="#BDC3C7" d="M518.018 245.814c-.409 0-.817 0-1.294-.068l-419.583-53.35c-5.45-.682-9.266-5.656-8.585-11.106.682-5.451 5.724-9.267 11.106-8.586l419.583 53.351c5.451.681 9.266 5.655 8.585 11.106-.613 5.042-4.906 8.722-9.88 8.722zM511 300.051h-.408l-393.487-15.944c-5.519-.204-9.743-4.838-9.539-10.357.205-5.451 4.906-9.675 10.357-9.539l393.486 15.944c5.451.205 9.744 4.838 9.539 10.357-.204 5.383-4.633 9.539-9.948 9.539"/><path fill="#E74C3C" d="m523.197 211.338-78.289-19.283 11.175-45.31 78.288 19.282c12.537 3.066 20.168 15.739 17.102 28.208-3.066 12.537-15.739 20.169-28.208 17.103z"/><path fill="#C0392B" d="M544.591 171.682c-5.995 13.423-22.484 20.305-36.589 16.762-18.464-4.633-36.589-9.812-53.827-18.056-1.227-.613-2.385-1.295-3.475-2.112l-5.86 23.711 78.289 19.282c12.537 3.067 25.142-4.565 28.208-17.102 2.112-8.517-.818-16.966-6.814-22.553zM48.901 8.905l66.91 71.27-41.223 38.702-66.91-71.202C-3.018 36.295-2.473 18.376 8.906 7.679S38.204-2.474 48.901 8.905"/><path fill="#ECF0F1" d="M40.588 27.71c0 7.428-6.064 13.492-13.49 13.492S13.607 35.138 13.607 27.71 19.67 14.22 27.097 14.22s13.491 6.064 13.491 13.49M86.921 81.402a8.375 8.375 0 0 1-8.38 8.38 8.375 8.375 0 0 1-8.382-8.38 8.375 8.375 0 0 1 8.381-8.38 8.375 8.375 0 0 1 8.381 8.38"/></svg>