<svg xmlns="http://www.w3.org/2000/svg" width="66" height="63" fill="none"><path fill="#EAEFF0" d="M4.473 49.34c-1.817-.49-3-2.93-3.213-4.956-.089-.955.233-2.232 1.15-2.743 1.142-.624 2.514-.817 3.967-.989 1.006-.119 2.038-.253 3.047-.544 3.028-.874 4.39-3.04 5.825-5.316 1.622-2.573 2.723-5.458 3.772-8.228 1.404-3.692 2.729-7.167 5.161-9.932 6.982-7.928 18.52-6.728 28.896-4.5 1.227.266 2.293.488 3.302.759 4.078 1.097 6.347 2.638 5.92 7.285-.55 6.065-3.327 12.526-7.849 18.15-1.882 2.329-4.009 4.44-6.353 6.234-.164.13-.334.278-.525.422-.555.456-1.25 1.027-1.69.974-.666-.18-1.937-1.409-2.695-2.132-.449-.424-.863-.817-1.183-1.076-.82-.654-1.674-1.338-2.156-2.204-.334-.609-.52-1.525-.084-2.1l-1.527-1.645c-3.688 2.363-7.758 2.524-12.07 2.705l-2.497.108c-3.604.2-8.813.897-12.274 4.425-.63.653-1.19 1.368-1.725 2.069-1.095 1.415-2.123 2.74-3.56 3.176a2.92 2.92 0 0 1-1.66.052z"/><path fill="#BDC3C7" d="M17.397 38.313c.038-.14.04-.313.058-.46-.492.3-1.106.33-1.63.189-1.6 1.28-3.544 2.229-5 3.698-1.188 1.196-1.98 2.693-3.342 3.733-2.849 2.221-6.017.157-4.92-3.358.093-.343.285-.573.491-.777-.22.093-.46.18-.664.297-.917.512-1.234 1.768-1.15 2.743.187 2.042 1.396 4.467 3.213 4.956.504.136 1.073.115 1.659-.052 1.437-.435 2.465-1.76 3.56-3.176.535-.7 1.095-1.416 1.725-2.069 1.973-2.023 4.533-3.088 7.013-3.698-.663-.351-1.183-1.075-1.034-2.031z"/><path fill="#F1BC91" d="M63.449 20.248c.627-6.997-4.48-8.046-10.108-9.257-9.986-2.145-22.415-3.736-29.992 4.875-4.518 5.127-5.405 12.53-9.043 18.326-.939 1.479-1.769 2.792-2.992 3.719.729 1.798 2.659 3.313 4.441 4.571 2.464-1.112 5.291-1.563 8.037-1.712 5.41-.32 10.455-.001 15.113-2.99-.707.935-.58 2.311.011 3.336.57 1.02 1.51 1.791 2.44 2.518 1.03.84 3.09 3.234 4.4 3.435 1.143.177 2.197-.924 3.077-1.618a39 39 0 0 0 6.533-6.425c4.232-5.269 7.505-11.964 8.098-18.753z"/><path fill="#E3976E" d="M63.449 20.248c.106-1.12.042-2.089-.146-2.919-.058 2.712-.993 5.383-2.062 8.147-1.292 3.354-2.886 7.752-6.056 9.8-3.822 2.457-7.571-.5-7.772-4.342-2.41.433-4.847-.005-6.854-1.476-.941-.686-4.142-3.755-3.203-4.91-2.638 3.209-4.777 6.573-8.377 8.85-4.621 2.935-10.212 5.133-15.485 6.55-.28.076-.545.091-.772.052.86.902 1.936 1.733 2.973 2.466 2.464-1.112 5.29-1.563 8.037-1.712 5.41-.32 10.455-.001 15.112-2.99-.706.935-.579 2.311.011 3.336.57 1.019 1.51 1.791 2.44 2.517 1.03.84 3.091 3.235 4.4 3.436 1.144.177 2.198-.925 3.077-1.619a39 39 0 0 0 6.534-6.424c4.231-5.269 7.505-11.964 8.097-18.753z"/><path fill="#FFCEA6" d="M22.269 34.364a.85.85 0 0 1-1.05.605.85.85 0 0 1-.606-1.05.85.85 0 0 1 1.05-.605c.465.125.73.586.606 1.05M25.44 33.356a.397.397 0 0 1-.486.28.384.384 0 0 1-.28-.486.384.384 0 0 1 .486-.28c.222.06.34.264.28.486M24.788 30.713a.727.727 0 0 1-.897.516.74.74 0 0 1-.516-.896c.103-.384.518-.64.902-.537.383.103.62.513.51.917M27.575 29.688a.397.397 0 0 1-.487.28.384.384 0 0 1-.28-.487.384.384 0 0 1 .486-.28c.222.06.34.265.28.487M30.43 29.374a.65.65 0 0 1-.794.457.65.65 0 0 1-.458-.794.65.65 0 0 1 .794-.458c.343.093.55.451.458.794M30.084 25.752a.277.277 0 0 1-.333.192.277.277 0 0 1-.192-.333.277.277 0 0 1 .333-.192c.141.038.23.192.192.333M28.913 23.186a.366.366 0 0 1-.436.25.366.366 0 0 1-.25-.435.366.366 0 0 1 .435-.25c.181.048.3.253.25.435M33.446 24.6a.54.54 0 0 1-.666.384.527.527 0 0 1-.384-.666.527.527 0 0 1 .666-.384.54.54 0 0 1 .384.666M33.594 27.108a.397.397 0 0 1-.487.28.41.41 0 0 1-.28-.487.41.41 0 0 1 .486-.28.41.41 0 0 1 .28.487M35.786 23.303a.669.669 0 1 0 .348-1.291.669.669 0 0 0-.348 1.291M34.57 20.422a.84.84 0 0 1-1.025.59.84.84 0 0 1-.59-1.024.84.84 0 0 1 1.025-.59c.444.119.71.58.59 1.024M39.437 19.87a.981.981 0 1 1-1.897-.51.981.981 0 1 1 1.897.51M39.536 23.122a.473.473 0 0 1-.589.34.473.473 0 0 1-.34-.59.473.473 0 0 1 .59-.34c.262.071.41.327.34.59M43.326 25.851a1.17 1.17 0 0 1-1.435.827 1.17 1.17 0 0 1-.826-1.435 1.17 1.17 0 0 1 1.435-.826c.625.168.994.809.826 1.434M41.652 27.566a.937.937 0 0 1-1.152.664.937.937 0 0 1-.664-1.153.937.937 0 0 1 1.153-.664c.504.136.8.648.663 1.153M45.115 27.891a.366.366 0 0 1-.436.251.366.366 0 0 1-.25-.435.366.366 0 0 1 .435-.251c.182.049.3.254.25.435M44.471 23.043a.397.397 0 0 1-.486.28.384.384 0 0 1-.28-.487.384.384 0 0 1 .486-.28c.222.06.34.264.28.486M46.858 21.412a1.316 1.316 0 0 1-1.634.924 1.3 1.3 0 0 1-.93-1.614c.19-.706.908-1.12 1.614-.93s1.14.913.95 1.62M48.362 25.237a.727.727 0 0 1-.897.516.727.727 0 0 1-.516-.897.727.727 0 0 1 .896-.516.714.714 0 0 1 .517.896M49.177 30.976a.669.669 0 1 0 .348-1.292.669.669 0 0 0-.348 1.291M53.03 27.358a1.07 1.07 0 0 1-1.307.752 1.07 1.07 0 0 1-.753-1.306 1.07 1.07 0 0 1 1.307-.752c.565.152.904.74.752 1.306M53.107 30.929a.51.51 0 0 1-.614.354.51.51 0 0 1-.354-.615.51.51 0 0 1 .614-.354c.263.07.425.353.354.615M53.592 33.31a.794.794 0 1 1-1.533-.411.794.794 0 0 1 1.533.412M57.771 30.409a1.17 1.17 0 0 1-1.434.826 1.17 1.17 0 0 1-.826-1.434 1.17 1.17 0 0 1 1.434-.827c.626.169.995.81.826 1.435M59.63 27.445a.705.705 0 0 1-.872.502.705.705 0 0 1-.501-.87.705.705 0 0 1 .87-.503.705.705 0 0 1 .502.871M56.948 27.114a.65.65 0 0 1-.794.457.65.65 0 0 1-.458-.794.65.65 0 0 1 .794-.457c.344.092.55.45.458.794M20.279 36.773a.44.44 0 0 1-.538.31.43.43 0 0 1-.31-.538c.065-.243.29-.355.532-.29a.424.424 0 0 1 .316.518"/></svg>