<svg xmlns="http://www.w3.org/2000/svg" width="35" height="75" fill="none"><path fill="#D35400" d="M34 54.646c0 10.736-7.392 19.438-16.491 19.438S1.017 65.382 1.017 54.645 8.41 35.225 17.509 35.225 34 43.927 34 54.646"/><path fill="#8A3700" d="M29.968 67.346a59 59 0 0 1-4.429 2.999A49 49 0 0 1 18.75 68a50 50 0 0 0 5.963-3.36 50 50 0 0 0 5.98 1.637c.19-.31.396-.604.569-.914a46 46 0 0 1-5.48-1.43c1.706-1.155 3.394-2.464 5.1-3.93.793.208 1.569.397 2.344.552.086-.327.155-.654.224-.982-.551-.12-1.103-.241-1.654-.379.689-.62 1.361-1.258 2.05-1.93.052-.517.104-1.051.121-1.586a64 64 0 0 1-3.343 3.206 48 48 0 0 1-5.722-1.982 58 58 0 0 0 4.636-3.843 51 51 0 0 0 4.48 1.361c0-.361-.034-.706-.051-1.05a47 47 0 0 1-3.602-1.086c1-.965 2-2 2.982-3.068-.104-.379-.207-.758-.328-1.137a61 61 0 0 1-3.74 3.826 50 50 0 0 1-5.135-2.258 66 66 0 0 0 4.24-3.826 55 55 0 0 0 4.48 1.792q-.207-.646-.465-1.24a61 61 0 0 1-3.257-1.31 56 56 0 0 0 1.689-1.81c-.19-.292-.362-.603-.569-.895-.707.775-1.396 1.533-2.102 2.257a51 51 0 0 1-4.619-2.499 57 57 0 0 0 3.412-3.36c-.258-.224-.534-.414-.81-.62a54 54 0 0 1-3.515 3.411 55 55 0 0 1-4.308-3.032 63 63 0 0 0 3.102-2.723 15 15 0 0 0-1.19-.293 64 64 0 0 1-2.722 2.343 56 56 0 0 1-2.723-2.343c-.396.086-.793.172-1.19.293a73 73 0 0 0 3.103 2.723 58 58 0 0 1-4.309 3.032 65 65 0 0 1-3.515-3.429c-.276.207-.552.397-.81.62a69 69 0 0 0 3.412 3.36 51 51 0 0 1-4.618 2.5 66 66 0 0 1-2.103-2.258c-.207.293-.379.586-.568.896.568.62 1.12 1.224 1.688 1.81-1.102.5-2.188.913-3.257 1.31q-.258.62-.465 1.24a45 45 0 0 0 4.48-1.792 61 61 0 0 0 4.24 3.826 54 54 0 0 1-5.135 2.257c-1.258-1.172-2.5-2.464-3.74-3.825-.12.379-.224.758-.327 1.137a56 56 0 0 0 2.98 3.067c-1.223.431-2.429.776-3.6 1.086L1 54.404c1.447-.379 2.946-.81 4.48-1.361a58 58 0 0 0 4.636 3.843 52 52 0 0 1-5.722 1.982 58 58 0 0 1-3.343-3.206c.017.535.07 1.069.12 1.586a43 43 0 0 0 2.052 1.93c-.552.138-1.103.276-1.655.379.07.327.138.655.224.982.776-.172 1.551-.345 2.344-.551a57 57 0 0 0 5.1 3.929 50 50 0 0 1-5.48 1.43c.173.31.38.62.57.913a50 50 0 0 0 5.98-1.637 55 55 0 0 0 5.962 3.36 51 51 0 0 1-6.79 2.344A54 54 0 0 1 5.05 67.33c1.207 1.637 2.62 3.016 4.222 4.101h.07c.999.586 1.998 1.138 2.98 1.637a14 14 0 0 0 4.55.966 50 50 0 0 1-6.17-2.965 49 49 0 0 0 6.808-2.498 52 52 0 0 0 6.807 2.499 50 50 0 0 1-6.17 2.963 14.1 14.1 0 0 0 4.567-.965c.982-.5 1.982-1.05 2.981-1.637h.07c1.585-1.085 3.015-2.481 4.221-4.101zm-.276-7.651a58 58 0 0 1-5.118 3.843 51 51 0 0 1-5.963-2.55 52 52 0 0 0 5.325-3.361 52 52 0 0 0 5.773 2.068zm-6.858-2.55a56 56 0 0 1-5.325 3.273 54 54 0 0 1-5.325-3.274 50 50 0 0 0 5.325-2.809 50 50 0 0 0 5.325 2.81M12.718 49.82a54 54 0 0 0 4.79-2.947A54 54 0 0 0 22.3 49.82a56 56 0 0 1-4.79 3.326 56 56 0 0 1-4.791-3.326m15.734 2.844a60 60 0 0 1-4.653 3.79 54 54 0 0 1-5.308-2.722c1.585-1 3.188-2.12 4.79-3.395a52 52 0 0 0 5.17 2.327m-5.722-9.875a52 52 0 0 0 4.67 2.55 60 60 0 0 1-4.239 3.775 55 55 0 0 1-4.774-2.878 58 58 0 0 0 4.343-3.447m-5.221-3.636a52 52 0 0 0 4.342 3.068 57 57 0 0 1-4.342 3.395 57 57 0 0 1-4.343-3.395 56 56 0 0 0 4.343-3.068m-9.91 6.187a52 52 0 0 0 4.67-2.55 58 58 0 0 0 4.344 3.446 52 52 0 0 1-4.774 2.878 57 57 0 0 1-4.24-3.774m-1.033 7.324a52 52 0 0 0 5.17-2.327 62 62 0 0 0 4.79 3.395 50 50 0 0 1-5.307 2.723 60 60 0 0 1-4.653-3.791m-1.241 7.03a53 53 0 0 0 5.773-2.067 55 55 0 0 0 5.325 3.36 54 54 0 0 1-5.963 2.55 55 55 0 0 1-5.118-3.842zm6.204 4.533a51 51 0 0 0 5.98-2.654 51 51 0 0 0 5.98 2.654 50 50 0 0 1-5.98 3.24 50 50 0 0 1-5.98-3.24"/><path fill="#F39C12" d="M14.545 48.976a53 53 0 0 0 2.946 2.016 50 50 0 0 0 2.947-2.016c-1-.586-1.982-1.19-2.947-1.844a53 53 0 0 1-2.946 1.844M20.163 45.236a55 55 0 0 0 2.877 1.706 69 69 0 0 0 2.62-2.292 65 65 0 0 1-2.826-1.568 70 70 0 0 1-2.671 2.154M14.217 56.317a50 50 0 0 0 3.292 1.965 50 50 0 0 0 3.291-1.965 56 56 0 0 1-3.291-1.775 51 51 0 0 1-3.292 1.775M9.34 44.65a48 48 0 0 0 2.62 2.292 55 55 0 0 0 2.877-1.706 50 50 0 0 1-2.67-2.154A65 65 0 0 1 9.34 44.65M11.34 54.335a57 57 0 0 0 3.239-1.62 52 52 0 0 1-2.964-2.136q-1.55.776-3.154 1.447a58 58 0 0 0 2.878 2.31M4.653 56.8c1.154-.328 2.292-.724 3.43-1.138a75 75 0 0 1-2.844-2.395 65 65 0 0 1-3.257 1.017 62 62 0 0 0 2.67 2.533zM3.481 47.235c.81.862 1.637 1.706 2.482 2.516a52 52 0 0 0 3.05-1.31 58 58 0 0 1-2.62-2.395c-.965.431-1.947.828-2.93 1.19zM26.9 69.724c.276.07.535.104.793.173a16.4 16.4 0 0 0 1.74-1.879 54 54 0 0 1-2.532 1.706M5.549 68.018c.534.672 1.12 1.293 1.74 1.879.259-.052.518-.104.793-.173a54 54 0 0 1-2.533-1.706M31.519 47.235a47 47 0 0 1-2.93-1.189 58 58 0 0 1-2.619 2.396 58 58 0 0 0 3.05 1.31 69 69 0 0 0 2.482-2.517zM14.234 59.936a59 59 0 0 1-3.274-2.12c-1.172.483-2.344.93-3.55 1.327a57 57 0 0 0 3.154 2.31 51 51 0 0 0 3.653-1.5zM12.477 39.291a53 53 0 0 0 2.585-1.792c-.604-.517-1.207-1.069-1.81-1.62a16 16 0 0 0-2.947 1.292 62 62 0 0 0 2.172 2.12M20.421 52.698a44 44 0 0 0 3.24 1.62 58 58 0 0 0 2.878-2.31 52 52 0 0 1-3.154-1.447 62 62 0 0 1-2.964 2.137M32.243 50.872q.697.206 1.447.413c0-.224-.034-.43-.051-.655-.052-.327-.138-.655-.207-.982-.397.414-.793.827-1.19 1.223M25.212 40.945c.896.517 1.81 1 2.723 1.448q.645-.672 1.292-1.396a17.4 17.4 0 0 0-2.033-2.033c-.673.689-1.327 1.361-1.982 1.999zM21.197 63.452a48 48 0 0 1-3.706-1.706 66 66 0 0 1-3.705 1.706 50 50 0 0 0 3.705 1.93 50 50 0 0 0 3.706-1.93M3.05 63.503a49 49 0 0 0 3.895-.913 68 68 0 0 1-3.068-2.43c-.689.172-1.378.31-2.068.465.242.896.552 1.758.897 2.585.12.104.224.207.344.31zM7.065 42.393c.914-.448 1.81-.93 2.723-1.448a72 72 0 0 1-1.999-1.981 17.3 17.3 0 0 0-2.016 2.033q.646.724 1.292 1.396M4.119 43.72s-.104-.12-.155-.172a1.7 1.7 0 0 1-.19.292c.12-.051.224-.086.345-.12M2.757 50.872c-.413-.414-.792-.828-1.189-1.258-.12.55-.224 1.102-.31 1.671.5-.138 1-.258 1.5-.413M21.713 70.345a48 48 0 0 1-4.204-1.638 57 57 0 0 1-4.205 1.638 54 54 0 0 0 4.205 1.895 51 51 0 0 0 4.204-1.895M9.633 68.277a45 45 0 0 0 4.17-1.362 49 49 0 0 1-3.636-2.137c-1.327.431-2.67.828-4.015 1.155a51 51 0 0 0 3.481 2.326zM33.018 60.608a61 61 0 0 1-1.895-.448c-1 .844-2.034 1.672-3.068 2.43 1.275.362 2.585.655 3.895.913.086-.069.224-.207.362-.31.155-.38.327-.758.465-1.155.086-.482.172-.947.258-1.43zM31.778 58.247c.637.155 1.24.293 1.86.414.139-.81.242-1.637.294-2.465a48 48 0 0 1-2.155 2.051M20.766 59.936a51 51 0 0 0 3.653 1.5 51 51 0 0 0 3.154-2.31A51 51 0 0 1 24.04 57.8a66 66 0 0 1-3.274 2.12zM33.001 54.266a60 60 0 0 1-3.257-1 48 48 0 0 1-2.843 2.396c1.137.431 2.291.81 3.429 1.138a52 52 0 0 0 2.654-2.534zM28.848 65.95a48 48 0 0 1-4.015-1.154 61 61 0 0 1-3.637 2.136 54 54 0 0 0 4.17 1.362 58 58 0 0 0 3.482-2.326zM17.491 43.41a49 49 0 0 0 2.637-2.051 52 52 0 0 1-2.637-1.896 60 60 0 0 1-2.636 1.896c.861.724 1.758 1.396 2.636 2.05M19.938 37.499c.845.62 1.707 1.223 2.585 1.792a50 50 0 0 0 2.172-2.12 15.3 15.3 0 0 0-2.93-1.292c-.603.551-1.206 1.086-1.81 1.62zM30.881 43.72c.121.052.224.086.345.138a3 3 0 0 0-.19-.31c-.051.051-.103.12-.155.172"/><path fill="#186B3B" d="M20.076 24.126c-4.463-13.959 5.17-19.111 9.427-19.525-4.17 2.654 0 12.339-6.135 19.043-.638.706-3.292.482-3.292.482M14.924 24.126c4.463-13.959-5.17-19.111-9.427-19.525 4.17 2.654 0 12.339 6.135 19.043.638.706 3.292.482 3.292.482"/><path fill="#1F8C4D" d="M11.546 26.297c0 3.774 2.671 12.029 5.963 12.029 3.291 0 5.962-8.255 5.962-12.029C23.471 13.597 17.51 0 17.51 0s-5.963 12.7-5.963 26.297"/><path fill="#1DA155" d="M17.336 27.056c2.81-14.39 13.718-14.27 17.664-12.563-4.929.327-5.945 10.805-14.545 13.734-.896.31-3.119-1.154-3.119-1.154z"/><path fill="#1DA155" d="M17.664 27.056C14.854 12.666 3.946 12.786 0 14.493c4.929.327 5.945 10.805 14.545 13.734.896.31 3.119-1.154 3.119-1.154z"/><path fill="#186B3B" d="M12.08 30.14c0 2.568 2.43 8.186 5.411 8.186 2.982 0 5.412-5.618 5.412-8.186 0-8.65-5.412-17.905-5.412-17.905s-5.41 8.651-5.41 17.905"/><path fill="#27AE60" d="M17.94 33.742c1.62-9.34 9.874-10.15 14.079-9.34-3.343 1.568-10.72 13.528-13.7 11.511-.793-.534-.38-2.154-.38-2.154zM17.06 33.742c-1.62-9.34-9.874-10.15-14.079-9.34 3.343 1.568 10.72 13.528 13.7 11.511.793-.534.38-2.154.38-2.154z"/><path fill="#1F8C4D" d="M12.597 33.966c0 1.361 2.189 4.377 4.912 4.377s4.911-2.998 4.911-4.377c0-4.618-4.911-9.564-4.911-9.564s-4.912 4.618-4.912 9.564"/><path fill="#8D734E" d="M17.491 35.207c-2.877 0-5.583.879-7.944 2.412.19-.034.38-.051.586-.051 2.154 0 3.188 2.43 2.964 4.325 1.137-1.051 2.912-1.344 4.325-.69 1.413.656 2.344 2.207 2.275 3.74 1.103-.792 2.706-.81 3.826-.034 1.12.758 1.706 2.257 1.378 3.567 1.328.052 2.396 1.206 2.775 2.464.38 1.258.224 2.62.069 3.93.448 1.171.224 2.481 0 3.705-.12.689-.259 1.395-.483 2.05-.344 1-.947 1.93-1.706 2.671a6.03 6.03 0 0 1-1.206 3.154c-.862 1.12-2.085 1.878-3.378 2.447a15.3 15.3 0 0 1-6.669 1.293c-2.878-.104-5.497-1.293-8.289-1.62 2.585 3.429 7.238 5.514 11.477 5.514 9.117 0 16.492-8.702 16.492-19.439S26.59 35.225 17.491 35.225z" opacity=".7" style="mix-blend-mode:multiply"/><path fill="#186B3B" d="M18.164 36.224c.861-4.12 7.375-5.463 9.874-5.188-2.792 1.62-3.154 6.876-9.289 6.894-.861 0-.585-1.706-.585-1.706M16.837 36.224c-.862-4.12-7.376-5.463-9.875-5.188 2.792 1.62 3.154 6.876 9.289 6.894.844 0 .585-1.706.585-1.706"/><path fill="#27AE60" d="M12.597 35.879c-.034 1.361 2.189 2.447 4.912 2.447s4.945-1.069 4.911-2.447c-.052-1.723-4.911-4.843-4.911-4.843s-4.86 3.12-4.912 4.843"/></svg>