<svg xmlns="http://www.w3.org/2000/svg" width="37" height="125" fill="none"><path fill="#117D68" d="M25.473 36.666V16.673H11.527v19.993C11.527 44.462 0 46.34 0 52.593v64.814c0 3.705 8.285 6.715 18.5 6.715s18.5-3.01 18.5-6.715V52.593c0-6.253-11.527-8.131-11.527-15.928"/><path fill="#0E6957" d="M18.5 120.958c-9.34 0-14.64-2.573-15.335-3.706v-64.66c0-1.389 1.955-2.881 4.04-4.477 3.344-2.573 7.487-5.763 7.487-11.45V16.674h7.616v19.993c0 5.686 4.143 8.876 7.488 11.45 2.084 1.595 4.04 3.113 4.04 4.477v64.659c-.695 1.107-5.996 3.706-15.336 3.706"/><path fill="#6E2119" d="M3.165 53.802v63.476c.695 1.107 5.995 3.705 15.335 3.705s14.64-2.573 15.335-3.705V53.802z"/><path fill="#1ABC9C" d="M25.473 16.673c0 1.39-3.113 2.548-6.973 2.548s-6.973-1.133-6.973-2.548 3.114-2.547 6.973-2.547 6.973 1.132 6.973 2.547"/><path fill="#F1C40F" d="M23.749 16.673c0 1.055-2.341 1.904-5.249 1.904s-5.249-.849-5.249-1.904 2.342-1.904 5.249-1.904 5.249.85 5.249 1.904"/><path fill="#F1C40F" d="M23.749 1.904H13.25v14.77h10.498z"/><path fill="#FFDD57" d="M23.749 1.904c0 1.055-2.341 1.904-5.249 1.904s-5.249-.849-5.249-1.904S15.593 0 18.5 0s5.249.85 5.249 1.904"/><path fill="#912C21" d="M33.835 53.802c0 3.087-6.87 5.583-15.335 5.583S3.165 56.89 3.165 53.802s6.87-5.584 15.335-5.584 15.335 2.496 15.335 5.584"/><path fill="#F39C12" d="M16.03 5.84c0 .515-.36.927-.798.927-.437 0-.797-.412-.797-.926 0-.515.36-.927.797-.927s.798.412.798.927M18.5 9.752c0 .72-.437 1.312-1.003 1.312-.567 0-1.004-.592-1.004-1.312s.438-1.312 1.004-1.312S18.5 9.03 18.5 9.752M17.934 14.306c0 1.08-.618 1.956-1.364 1.956s-1.364-.875-1.364-1.956.618-1.955 1.364-1.955 1.364.874 1.364 1.955M20.095 12.84c0 .54-.257.951-.591.951-.335 0-.592-.437-.592-.952s.257-.952.591-.952c.335 0 .592.438.592.952M16.03 10.807c0 .591-.36 1.055-.798 1.055-.437 0-.797-.463-.797-1.055s.36-1.055.797-1.055.798.463.798 1.055"/><path fill="#F1DF98" d="M35.79 82.98c0 13.585-7.744 24.572-17.29 24.572S1.21 96.54 1.21 82.98 8.953 58.382 18.5 58.382 35.79 69.394 35.79 82.98"/><path fill="#C0392B" d="M33.63 82.98c0 11.861-6.768 21.485-15.13 21.485S3.37 94.841 3.37 82.98c0-11.862 6.768-21.485 15.13-21.485s15.13 9.623 15.13 21.485"/><path fill="#F1DF98" d="M32.163 82.98c0 10.73-6.124 19.426-13.663 19.426S4.837 93.709 4.837 82.98c0-10.73 6.124-19.426 13.663-19.426S32.163 72.25 32.163 82.98"/><path fill="#34495E" d="M11.45 85.424c1.748 0 3.165-1.578 3.165-3.525s-1.417-3.525-3.165-3.525-3.165 1.578-3.165 3.525 1.417 3.525 3.165 3.525M21.485 81.9c0 1.955-1.415 3.524-3.165 3.524s-3.165-1.57-3.165-3.525 1.415-3.525 3.165-3.525 3.165 1.57 3.165 3.525M18.32 88.924c0 1.955-1.415 3.525-3.165 3.525s-3.165-1.57-3.165-3.525c0-1.956 1.415-3.526 3.165-3.526s3.165 1.57 3.165 3.526M21.485 95.974c0 1.93-1.415 3.525-3.165 3.525s-3.165-1.57-3.165-3.525c0-1.956 1.415-3.525 3.165-3.525s3.165 1.57 3.165 3.525M25.19 88.924c0 1.955-1.415 3.525-3.165 3.525s-3.165-1.57-3.165-3.525c0-1.956 1.415-3.526 3.165-3.526s3.165 1.57 3.165 3.526M28.355 81.9c0 1.955-1.416 3.524-3.165 3.524s-3.165-1.57-3.165-3.525 1.415-3.525 3.165-3.525 3.165 1.57 3.165 3.525"/><path fill="#27AE60" d="M18.423 73.511c-.412-1.415-1.518-2.624-2.882-3.19-.335-.129-.746-.258-.9-.592-.18-.386.025-.85.385-1.107.36-.231.798-.283 1.21-.334.257 1.39 1.466 2.393 2.161 3.628.772 1.364 1.107 3.73.155 5.094-.438-.283-.052-1.029 0-1.415.102-.694.077-1.44-.13-2.11zM21.768 74.154c1.132-.669 2.47-.437 3.73-.437.515 0 2.934-.129 3.037-.952-.206 1.827-1.03 4.297-3.01 4.786-.901.206-1.853.129-2.805.025-1.312-.128-2.599-.257-3.911-.385a9.1 9.1 0 0 1 2.598-2.83c.13-.078.258-.155.36-.232z"/></svg>